# AST/ASF file generated using VICON BodyLanguage
# -----------------------------------------------
:version 1.10
:name VICON
:units
  mass 1.0
  length 0.45
  angle deg
:documentation
   .ast/.asf automatically generated from VICON data using
   VICON BodyBuilder and BodyLanguage model FoxedUp or BRILLIANT.MOD
:root
   order TX TY TZ RX RY RZ
   axis XYZ
   position 0 0 0  
   orientation 0 0 0 
:bonedata
  begin
     id 1 
     name lhipjoint
     direction 0.578396 -0.714046 0.394458 
     length 2.21935 
     axis 0 0 0  XYZ
  end
  begin
     id 2 
     name lfemur
     direction 0.34202 -0.939693 0  
     length 6.39105  
     axis 0 0 20  XYZ
    dof rx ry rz
    limits (-160.0 20.0)
           (-70.0 70.0)
           (-60.0 70.0)
  end
  begin
     id 3 
     name ltibia
     direction 0.34202 -0.939693 0   
     length 6.99037   
     axis 0 0 20   XYZ
    dof rx
    limits (-10.0 170.0)
  end
  begin
     id 4 
     name lfoot
     direction 0.0582372 -0.160005 0.985397   
     length 2.06111   
     axis -90 7.62852e-016 20   XYZ
    dof rx rz
    limits (-45.0 90.0)
           (-70.0 20.0)
  end
  begin
     id 5 
     name ltoes
     direction 1.53556e-011 -4.21875e-011 1   
     length 1.04074   
     axis -90 7.62852e-016 20   XYZ
    dof rx
    limits (-90.0 20.0)
  end
  begin
     id 6 
     name rhipjoint
     direction -0.558179 -0.726269 0.40121   
     length 2.182  
     axis 0 0 0  XYZ 
  end
  begin
     id 7 
     name rfemur
     direction -0.34202 -0.939693 0   
     length 6.51172   
     axis 0 0 -20   XYZ
    dof rx ry rz
    limits (-160.0 20.0)
           (-70.0 70.0)
           (-70.0 60.0)
  end
  begin
     id 8 
     name rtibia
     direction -0.34202 -0.939693 0   
     length 7.02607   
     axis 0 0 -20   XYZ
    dof rx
    limits (-10.0 170.0)
 end
 begin
     id 9 
     name rfoot
     direction -0.0788856 -0.216737 0.973038   
     length 1.96734  
     axis -90 -7.62852e-016 -20   XYZ
    dof rx rz
    limits (-45.0 90.0)
           (-20.0 70.0)
  end
  begin
     id 10 
     name rtoes
     direction -1.53567e-011 -4.21783e-011 1   
     length 0.990825   
     axis -90 -7.62852e-016 -20   XYZ
    dof rx
    limits (-90.0 20.0)
  end
  begin
     id 11 
     name lowerback
     direction 0.00668177 0.999323 -0.0361741   
     length 1.7655   
     axis 0 0 0   XYZ
    dof rx ry rz
    limits (-20.0 45.0)
           (-30.0 30.0)
           (-30.0 30.0)
  end
  begin
     id 12 
     name upperback
     direction -0.00222086 0.99851 0.0545167   
     length 1.74912   
     axis 0 0 0   XYZ
    dof rx ry rz
    limits (-20.0 45.0)
           (-30.0 30.0)
           (-30.0 30.0)
  end
  begin
     id 13 
     name thorax
     direction -0.00733971 0.997496 0.0703443   
     length 1.75715   
     axis 0 0 0   XYZ
    dof rx ry rz
    limits (-20.0 45.0)
           (-30.0 30.0)
           (-30.0 30.0)
  end
  begin
     id 14 
     name lowerneck
     direction 0.0279797 0.994795 0.0979765   
     length 1.46939   
     axis 0 0 0   XYZ
    dof rx ry rz
    limits (-20.0 45.0)
           (-30.0 30.0)
           (-30.0 30.0)
  end
  begin
     id 15 
     name upperneck
     direction 0.00339187 0.976776 -0.214238   
     length 1.48018   
     axis 0 0 0   XYZ
    dof rx ry rz
    limits (-20.0 45.0)
           (-30.0 30.0)
           (-30.0 30.0)
  end
  begin
     id 16
     name head
     direction -0.00263506 0.996603 -0.0823096  
     length 1.4976  
     axis 0 0 0   XYZ
    dof rx ry rz
    limits (-20.0 45.0)
           (-30.0 30.0)
           (-30.0 30.0)
  end
  begin
     id 17 
     name lclavicle
     direction 0.894044 0.44508 -0.0508781  
     length 3.03024  
     axis 0 0 0   XYZ
    dof ry rz
    limits (-20.0 10.0)
           (0.0 20.0)
  end
  begin
     id 18 
     name lhumerus
     direction 1 -4.48961e-011 -2.39475e-018   
     length 4.4661   
     axis 180 -30 -90   XYZ
    dof rx ry rz
    limits (-60.0 90.0)
           (-90.0 90.0)
           (-90.0 90.0)
  end
  begin
     id 19
     name lradius
     direction 1 -4.48961e-011 9.29328e-028   
     length 3.41414   
     axis 180 -30 -90   XYZ
    dof rx
    limits (-10.0 170.0)
  end
  begin
     id 20
     name lwrist
     direction 1 -4.48985e-011 1.53461e-026   
     length 1.70707   
     axis -1.09697e-014 90 90   XYZ
    dof ry
    limits (-180.0 0.0)
 end
  begin
     id 21 
     name lhand
     direction 1 -4.48966e-011 3.06923e-026   
     length 0.328298   
     axis -1.95843e-014 90 90   XYZ
    dof rx rz
    limits (-90.0 90.0)
           (-45.0 45.0)
  end
  begin
     id 22 
     name lfingers
     direction 1 -4.48893e-011 6.13845e-026   
     length 0.264682   
     axis -3.91686e-014 90 90   XYZ
    dof rx
    limits (0.0 90.0)
  end
  begin
     id 23
     name lthumb
     direction 0.707107 -6.34876e-011 0.707107   
     length 0.380032   
     axis -90 45 2.85299e-015   XYZ
    dof rx rz
    limits (-45.0 45.0)
           (-45.0 45.0)
  end
  begin
     id 24 
     name rclavicle
     direction -0.936955 0.347862 -0.0332887   
     length 3.26927  
     axis 0 0 0   XYZ 
    dof ry rz
    limits (-10.0 20.0)
           (-20.0 0.0)
  end
  begin
     id 25 
     name rhumerus
     direction -1 -4.4896e-011 1.78637e-018  
     length 4.40431   
     axis 180 30 90   XYZ
    dof rx ry rz
    limits (-90.0 60.0)
           (-90.0 90.0)
           (-90.0 90.0)
  end
  begin
     id 26 
     name rradius
     direction -1 -4.48955e-011 9.34036e-027   
     length 3.04688   
     axis 180 30 90   XYZ
    dof rx
    limits (-10.0 170.0)
  end
  begin
     id 27 
     name rwrist
     direction -1 -4.49011e-011 1.53461e-026   
     length 1.52344   
     axis -1.09697e-014 -90 -90   XYZ
    dof ry
    limits (-180.0 0.0)
  end
  begin
     id 28
     name rhand
     direction -1 -4.48834e-011 3.06923e-026   
     length 0.500489   
     axis -1.95843e-014 -90 -90   XYZ
    dof rx rz
    limits (-90.0 90.0)
           (-45.0 45.0)
  end
  begin
     id 29
     name rfingers
     direction -1 -4.48967e-011 6.13845e-026   
     length 0.403507   
     axis -3.91686e-014 -90 -90   XYZ
    dof rx
    limits (0.0 90.0)
  end
  begin
     id 30
     name rthumb
     direction -0.707107 -6.34826e-011 0.707107   
     length 0.579358   
     axis -90 -45 -2.85299e-015   XYZ
    dof rx rz
    limits (-45.0 45.0)
           (-45.0 45.0)
  end
:hierarchy
  begin
    root lhipjoint rhipjoint lowerback
    lhipjoint lfemur
    lfemur ltibia
    ltibia lfoot
    lfoot ltoes
    rhipjoint rfemur
    rfemur rtibia
    rtibia rfoot
    rfoot rtoes
    lowerback upperback
    upperback thorax
    thorax lowerneck lclavicle rclavicle
    lowerneck upperneck
    upperneck head
    lclavicle lhumerus
    lhumerus lradius
    lradius lwrist
    lwrist lhand lthumb
    lhand lfingers
    rclavicle rhumerus
    rhumerus rradius
    rradius rwrist
    rwrist rhand rthumb
    rhand rfingers
  end

#!OML:ASF H:\IndianDance\Patient Classification 1\Patient 1\Session 1\dancer.ASF
:FULLY-SPECIFIED
:DEGREES
830
root -1.27093 16.428 -2.2776 366.715 12.1405 8.19847
lowerback 5.21558 3.518 -3.06186
upperback -6.63756 3.84813 -7.6585
thorax -9.70425 1.78898 -7.07396
lowerneck -18.3499 10.2994 5.71641
upperneck 14.7888 12.3359 1.05866
head 7.83703 6.30177 0.950162
rclavicle -1.07344e-014 -5.24792e-014
rhumerus 2.99824 54.9581 -27.7643
rradius 115.708
rwrist 11.2904
rhand -43.5207 49.7073
rfingers 7.12502
rthumb -16.3597 20.3773
lclavicle -1.07344e-014 -5.24792e-014
lhumerus 33.7001 36.5678 56.1742
lradius 22.1691
lwrist 35.987
lhand -17.447 49.6755
lfingers 7.12502
lthumb 8.80404 79.4719
rfemur -46.1581 0.0436496 3.37151
rtibia 104.826
rfoot 5.13589 -4.72659
rtoes 24.3854
lfemur -8.20314 -5.25865 -6.95352
ltibia 13.9985
lfoot 27.6774 3.53602
ltoes 1.70941
831
root -0.925707 16.3467 -2.24865 366.544 11.9819 8.70126
lowerback 5.69832 3.32558 -3.32503
upperback -6.52027 3.53216 -7.5982
thorax -9.91327 1.64905 -6.85313
lowerneck -18.3116 10.0301 5.53641
upperneck 14.9191 12.0168 1.07637
head 7.85602 6.14336 0.94313
rclavicle 4.47266e-015 4.29375e-014
rhumerus 0.133623 54.2546 -31.04
rradius 116.487
rwrist 11.4242
rhand -43.5976 50.362
rfingers 7.12502
rthumb -16.4338 21.0381
lclavicle 4.47266e-015 4.29375e-014
lhumerus 31.4697 34.5509 53.6001
lradius 23.1848
lwrist 36.2414
lhand -17.418 51.5212
lfingers 7.12502
lthumb 8.832 81.3163
rfemur -48.097 -1.10435 4.4779
rtibia 107.087
rfoot 5.32464 -2.48598
rtoes 23.0498
lfemur -8.02843 -4.82119 -8.74836
ltibia 15.9421
lfoot 24.8451 3.03272
ltoes -0.173317
832
root -0.577902 16.2522 -2.22136 366.354 11.8008 9.13494
lowerback 6.1842 3.16098 -3.50242
upperback -6.39592 3.26319 -7.51415
thorax -10.1048 1.52816 -6.65594
lowerneck -18.2668 9.68843 5.26704
upperneck 14.9916 11.6122 1.14353
head 7.84491 5.94438 0.951807
rclavicle -5.06901e-015 -7.95139e-015
rhumerus -3.04351 53.4365 -34.3932
rradius 117.418
rwrist 11.6017
rhand -43.6934 50.9722
rfingers 7.12502
rthumb -16.526 21.656
lclavicle -5.06901e-015 -7.95139e-015
lhumerus 29.4272 32.3704 51.2962
lradius 24.3044
lwrist 36.4775
lhand -17.327 53.335
lfingers 7.12502
lthumb 8.91981 83.1265
rfemur -50.0161 -1.97548 5.88874
rtibia 108.905
rfoot 5.68672 -0.331778
rtoes 21.8998
lfemur -7.95083 -3.93732 -10.5669
ltibia 18.196
lfoot 21.343 2.84588
ltoes -2.78365
833
root -0.229203 16.1467 -2.19532 366.166 11.5988 9.49416
lowerback 6.66529 3.01959 -3.6008
upperback -6.27575 3.03547 -7.40702
thorax -10.2888 1.42344 -6.48
lowerneck -18.2023 9.28108 4.91873
upperneck 15.0006 11.1306 1.25367
head 7.80199 5.70871 0.973733
rclavicle -6.0033e-014 3.02153e-014
rhumerus -6.44074 52.4964 -37.745
rradius 118.455
rwrist 11.8142
rhand -43.8005 51.5196
rfingers 7.12502
rthumb -16.6292 22.212
lclavicle -6.0033e-014 3.02153e-014
lhumerus 27.5223 30.0251 49.217
lradius 25.6563
lwrist 37.1735
lhand -17.5035 55.1875
lfingers 7.12502
lthumb 8.74947 84.9861
rfemur -51.9229 -2.52047 7.61506
rtibia 110.267
rfoot 6.20708 1.65066
rtoes 20.9484
lfemur -7.9486 -2.68967 -12.3489
ltibia 20.5779
lfoot 17.3492 2.96088
ltoes -5.75933
834
root 0.118699 16.0329 -2.16981 366.001 11.3912 9.78803
lowerback 7.12964 2.89078 -3.64885
upperback -6.16755 2.83293 -7.2762
thorax -10.4708 1.32892 -6.30658
lowerneck -18.1169 8.81652 4.50551
upperneck 14.9568 10.5812 1.40228
head 7.73332 5.44071 1.00787
rclavicle -4.1546e-014 4.45278e-014
rhumerus -9.99029 51.3958 -41.0939
rradius 119.534
rwrist 11.994
rhand -43.8815 52.1266
rfingers 7.12502
rthumb -16.7072 22.8256
lclavicle -4.1546e-014 4.45278e-014
lhumerus 25.7179 27.5528 47.3401
lradius 27.3269
lwrist 38.5269
lhand -18.1726 57.0739
lfingers 7.12502
lthumb 8.10375 86.8986
rfemur -53.8002 -2.73393 9.63106
rtibia 111.154
rfoot 6.85495 3.4295
rtoes 20.1563
lfemur -8.02858 -1.16134 -14.0618
ltibia 22.9755
lfoot 13.0707 3.30112
ltoes -8.6963
835
root 0.464262 15.9133 -2.14399 365.88 11.1987 10.0428
lowerback 7.56009 2.76057 -3.68162
upperback -6.07381 2.63359 -7.13146
thorax -10.6468 1.23615 -6.12269
lowerneck -18.0097 8.31016 4.06932
upperneck 14.8713 9.97862 1.56467
head 7.6477 5.14706 1.04318
rclavicle -4.56211e-014 -3.57812e-014
rhumerus -13.622 50.0998 -44.423
rradius 120.59
rwrist 12.1909
rhand -43.9459 52.805
rfingers 7.12502
rthumb -16.7691 23.5092
lclavicle -4.56211e-014 -3.57812e-014
lhumerus 23.9798 24.9782 45.6196
lradius 29.3677
lwrist 40.51
lhand -19.3341 58.9371
lfingers 7.12502
lthumb 6.98265 88.8019
rfemur -55.6168 -2.63698 11.8691
rtibia 111.55
rfoot 7.56988 5.02532
rtoes 19.4838
lfemur -8.20345 0.568933 -15.705
ltibia 25.3227
lfoot 8.74955 3.7477
ltoes -11.4333
836
root 0.806207 15.7901 -2.11696 365.827 11.0475 10.2981
lowerback 7.94346 2.6174 -3.74744
upperback -5.99901 2.41563 -6.98417
thorax -10.8177 1.13773 -5.90974
lowerneck -17.8901 7.77074 3.64828
upperneck 14.7677 9.33045 1.7098
head 7.55911 4.83016 1.06662
rclavicle -2.68359e-014 5.08889e-014
rhumerus -17.2895 48.587 -47.7039
rradius 121.597
rwrist 12.4317
rhand -44.0359 53.5763
rfingers 7.12502
rthumb -16.8558 24.2879
lclavicle -2.68359e-014 5.08889e-014
lhumerus 22.2864 22.3325 44.0353
lradius 31.7862
lwrist 42.8611
lhand -20.8598 60.7086
lfingers 7.12502
lthumb 5.50975 -90.617
rfemur -57.3391 -2.2983 14.2251
rtibia 111.443
rfoot 8.28631 6.5155
rtoes 18.9559
lfemur -8.45084 2.40494 -17.3041
ltibia 27.5067
lfoot 4.63008 4.18022
ltoes -13.7272
837
root 1.14328 15.6646 -2.08756 365.859 10.957 10.6092
lowerback 8.26318 2.45963 -3.91612
upperback -5.94317 2.16729 -6.84944
thorax -10.9765 1.03291 -5.642
lowerneck -17.7697 7.19742 3.25188
upperneck 14.6652 8.63281 1.8365
head 7.47635 4.48855 1.07717
rclavicle -1.05356e-014 1.82882e-014
rhumerus -20.9669 46.8041 -50.9255
rradius 122.543
rwrist 12.728
rhand -44.1294 54.4308
rfingers 7.12502
rthumb -16.9458 25.1501
lclavicle -1.05356e-014 1.82882e-014
lhumerus 20.6398 19.6238 42.579
lradius 34.5521
lwrist 45.2168
lhand -22.5764 62.2585
lfingers 7.12502
lthumb 3.85215 -92.2034
rfemur -58.9276 -1.80838 16.5797
rtibia 110.845
rfoot 8.91804 7.94463
rtoes 18.482
lfemur -8.80315 4.27067 -18.9111
ltibia 29.5859
lfoot 0.759461 4.60006
ltoes -15.5985
838
root 1.47338 15.5479 -2.05309 365.985 10.9516 11.0103
lowerback 8.50633 2.27529 -4.22668
upperback -5.90288 1.86681 -6.73594
thorax -11.1126 0.9142 -5.30228
lowerneck -17.6677 6.59763 2.88773
upperneck 14.5876 7.89305 1.9452
head 7.41079 4.1262 1.07601
rclavicle 2.64384e-014 -6.52014e-014
rhumerus -24.59 44.7421 -54.0408
rradius 123.433
rwrist 13.0653
rhand -44.2188 55.3856
rfingers 7.12502
rthumb -17.0319 26.1123
lclavicle 2.64384e-014 -6.52014e-014
lhumerus 19.0343 16.8924 41.2334
lradius 37.6113
lwrist 47.1528
lhand -24.2453 63.5386
lfingers 7.12502
lthumb 2.24049 -93.5066
rfemur -60.2629 -1.26416 18.8413
rtibia 109.697
rfoot 9.40777 9.3384
rtoes 18.0104
lfemur -9.20401 6.08515 -20.5625
ltibia 31.5105
lfoot -2.8532 5.0153
ltoes -17.0297
839
root 1.79872 15.4197 -2.01588 366.201 11.0495 11.5137
lowerback 8.661 2.05731 -4.69702
upperback -5.86832 1.50348 -6.64495
thorax -11.2058 0.778146 -4.87897
lowerneck -17.5993 5.97091 2.54088
upperneck 14.5367 7.11161 2.04838
head 7.36414 3.74379 1.06966
rclavicle -5.91384e-015 -3.02153e-014
rhumerus -28.0895 42.4045 -56.9582
rradius 124.299
rwrist 13.4376
rhand -44.3374 56.4078
rfingers 7.12502
rthumb -17.1459 27.1443
lclavicle -5.91384e-015 -3.02153e-014
lhumerus 17.476 14.1628 39.9911
lradius 40.9055
lwrist 48.4006
lhand -25.6584 64.5131
lfingers 7.12502
lthumb 0.875688 -94.491
rfemur -61.4858 -0.746575 20.953
rtibia 108.182
rfoot 9.76444 10.6611
rtoes 17.5442
lfemur -9.66028 7.77273 -22.2691
ltibia 33.3174
lfoot -6.21991 5.38708
ltoes -17.8208
840
root 2.11742 15.2924 -1.97306 366.491 11.2699 12.1041
lowerback 8.73256 1.79491 -5.32059
upperback -5.83276 1.0652 -6.56688
thorax -11.2479 0.618641 -4.36404
lowerneck -17.5699 5.31887 2.21155
upperneck 14.5095 6.28923 2.15381
head 7.33603 3.34259 1.06021
rclavicle -4.72114e-015 2.3059e-014
rhumerus -31.4109 39.8171 -59.6151
rradius 125.158
rwrist 13.8038
rhand -44.4625 57.4683
rfingers 7.12502
rthumb -17.2663 28.2153
lclavicle -4.72114e-015 2.3059e-014
lhumerus 15.9509 11.4435 38.8231
lradius 44.3983
lwrist 48.8573
lhand -26.751 65.1422
lfingers 7.12502
lthumb -0.179619 -95.1219
rfemur -62.4712 -0.328482 22.9089
rtibia 106.233
rfoot 10.0086 11.8511
rtoes 17.0481
lfemur -10.1015 9.28003 -24.0115
ltibia 34.9651
lfoot -9.36245 5.66159
ltoes -17.9104
